<?xml version="1.0" ?><!DOCTYPE svg  PUBLIC '-//W3C//DTD SVG 1.1//EN'  'http://www.w3.org/Graphics/SVG/1.1/DTD/svg11.dtd'><svg enable-background="new 0 0 153 153" height="153px" id="Layer_1" version="1.1" viewBox="0 0 153 153" width="153px" xml:space="preserve" xmlns="http://www.w3.org/2000/svg" xmlns:xlink="http://www.w3.org/1999/xlink"><g><path d="M152.5,122.101c0,16.789-13.611,30.399-30.4,30.399H30.9c-16.789,0-30.4-13.61-30.4-30.399V30.9   c0-16.79,13.611-30.4,30.4-30.4H122.1c16.789,0,30.4,13.61,30.4,30.4V122.101z" fill="#F1635A"/><g><path d="M123.701,41.469c-1.482-0.614-3.092-0.962-4.781-0.962H34.08c-1.689,0-3.301,0.348-4.781,0.962    L76.5,70.818L123.701,41.469z" fill="#FFFFFF"/><path d="M77.938,82.019c-0.018,0.005-0.037,0.005-0.055,0.009c-0.172,0.024-0.344,0.044-0.518,0.059    c-0.057,0.004-0.111,0.01-0.17,0.014c-0.135,0.008-0.27,0.016-0.406,0.02c-0.098,0.002-0.193,0.004-0.289,0.004    s-0.193-0.002-0.289-0.004c-0.137-0.004-0.271-0.012-0.408-0.02c-0.057-0.004-0.111-0.01-0.168-0.014    c-0.174-0.015-0.346-0.034-0.518-0.059c-0.02-0.004-0.037-0.004-0.055-0.009c-1.109-0.163-2.172-0.513-3.059-1.063L21.809,49.744    c-0.429,1.34-0.669,2.77-0.669,4.26v44.991c0,7.456,5.794,13.498,12.94,13.498h84.84c7.146,0,12.941-6.042,12.941-13.498V54.004    c0-1.49-0.24-2.92-0.67-4.26l-50.195,31.21C80.109,81.506,79.047,81.855,77.938,82.019z" fill="#FFFFFF"/></g></g></svg>